<svg width="35" height="35" viewBox="0 0 35 35" fill="none" xmlns="http://www.w3.org/2000/svg">
<path d="M27.0058 10.7142C26.8741 10.5814 26.7174 10.476 26.5448 10.4041C26.3722 10.3322 26.187 10.2952 26 10.2952C25.813 10.2952 25.6278 10.3322 25.4552 10.4041C25.2825 10.476 25.1258 10.5814 24.9941 10.7142L14.44 21.2825L10.0058 16.8342C9.86906 16.7021 9.70765 16.5983 9.53077 16.5286C9.35389 16.4589 9.16502 16.4247 8.97493 16.428C8.78484 16.4312 8.59726 16.4719 8.4229 16.5477C8.24853 16.6235 8.09081 16.7329 7.95872 16.8696C7.82663 17.0064 7.72277 17.1678 7.65306 17.3447C7.58336 17.5215 7.54917 17.7104 7.55246 17.9005C7.55575 18.0906 7.59645 18.2782 7.67223 18.4525C7.74801 18.6269 7.8574 18.7846 7.99414 18.9167L13.4341 24.3567C13.5658 24.4895 13.7225 24.5949 13.8952 24.6668C14.0678 24.7387 14.253 24.7758 14.44 24.7758C14.627 24.7758 14.8122 24.7387 14.9848 24.6668C15.1574 24.5949 15.3141 24.4895 15.4458 24.3567L27.0058 12.7967C27.1496 12.6641 27.2644 12.503 27.3429 12.3238C27.4213 12.1446 27.4619 11.9511 27.4619 11.7555C27.4619 11.5598 27.4213 11.3663 27.3429 11.1871C27.2644 11.0079 27.1496 10.8469 27.0058 10.7142Z" fill="#31CD63"/>
</svg>
